<svg xmlns="http://www.w3.org/2000/svg" xmlns:xlink="http://www.w3.org/1999/xlink" width="128" height="128" viewBox="0 0 128 128"><defs><filter id="a" x="7" y="8" width="116" height="116" filterUnits="userSpaceOnUse"><feOffset dx="1" dy="2" input="SourceAlpha"/><feGaussianBlur stdDeviation="3" result="b"/><feFlood flood-color="#251a0a" flood-opacity="0.298"/><feComposite operator="in" in2="b"/><feComposite in="SourceGraphic"/></filter><clipPath id="d"><rect width="128" height="128"/></clipPath></defs><g id="c" clip-path="url(#d)"><g transform="translate(4.965 4.931)"><g transform="matrix(1, 0, 0, 1, -4.97, -4.93)" filter="url(#a)"><g transform="translate(15 15)" fill="#e4e4e4"><path d="M 49.25027084350586 97.49999237060547 C 47.75039672851563 97.49999237060547 46.28067398071289 97.42440795898438 45.11184692382813 97.28715515136719 C 43.38074111938477 97.08388519287109 43.03383255004883 96.83219146728516 42.99897003173828 96.80319213867188 C 42.92153930664063 96.70442199707031 42.54637145996094 96.01851654052734 42.06922149658203 91.71022796630859 C 41.78728485107422 89.16464233398438 41.57068634033203 86.30655670166016 41.43863677978516 84.357177734375 L 41.41345977783203 83.98565673828125 L 41.05028533935547 83.90334320068359 C 37.11405944824219 83.01126861572266 33.38129806518555 81.46646881103516 29.95572280883789 79.31186676025391 L 29.63773536682129 79.11185455322266 L 29.35711097717285 79.36159515380859 C 27.89413452148438 80.66352844238281 25.73002243041992 82.55268096923828 23.72822189331055 84.15896606445313 C 20.31193542480469 86.9002685546875 19.55943489074707 87.04460144042969 19.44328498840332 87.04570770263672 C 19.06149673461914 87.04570770263672 17.48557281494141 86.07556915283203 14.88230991363525 83.47232055664063 C 13.82205963134766 82.41205596923828 12.83638477325439 81.31936645507813 12.10687255859375 80.39553070068359 C 11.02701282501221 79.02801513671875 10.95950794219971 78.60462951660156 10.95533180236816 78.55931854248047 C 10.97046089172363 78.43471527099609 11.19017791748047 77.68506622314453 13.89434719085693 74.30657958984375 C 15.49324798583984 72.30898284912109 17.36043548583984 70.13520812988281 18.64527320861816 68.66337585449219 L 18.89032173156738 68.38266754150391 L 18.69136047363281 68.06760406494141 C 16.52754783630371 64.64097595214844 14.9748477935791 60.90586853027344 14.07638549804688 56.96601867675781 L 13.99289798736572 56.59990310668945 L 13.61802291870117 56.57802963256836 C 11.66359710693359 56.46400451660156 8.799284934997559 56.26937866210938 6.252685070037842 55.98974227905273 C 1.913672566413879 55.51329040527344 1.281185030937195 55.08425521850586 1.198447585105896 55.00307846069336 C 0.9285975694656372 54.73284149169922 0.4999975860118866 52.93179321289063 0.4999975860118866 49.25065612792969 C 0.4999975860118866 47.75116729736328 0.5755975842475891 46.28166580200195 0.7128600478172302 45.11288070678711 C 0.9161535501480103 43.38187026977539 1.16782283782959 43.03496551513672 1.196823000907898 43.00009155273438 C 1.295567750930786 42.92278671264648 1.979376316070557 42.54902648925781 6.262060165405273 42.07347869873047 C 8.800185203552246 41.79164123535156 11.65548515319824 41.57476806640625 13.60385990142822 41.44246673583984 L 13.97574710845947 41.41721725463867 L 14.05773544311523 41.05360412597656 C 14.94954776763916 37.09881591796875 16.50079727172852 33.34838104248047 18.66835975646973 29.90646743774414 L 18.86665916442871 29.59159278869629 L 18.62198448181152 29.31124114990234 C 17.33795928955078 27.84001731872559 15.47270965576172 25.66794204711914 13.87842273712158 23.67506790161133 C 11.18654537200928 20.3101692199707 10.96999359130859 19.56482124328613 10.95528984069824 19.44158744812012 C 10.95883464813232 19.40150260925293 11.01944351196289 18.99738311767578 12.03968524932861 17.69135475158691 C 12.72728538513184 16.81112861633301 13.66851043701172 15.75674247741699 14.68996047973633 14.72241687774658 C 15.73189735412598 13.66734218597412 16.77942276000977 12.71342945098877 17.63958549499512 12.03639221191406 C 18.97432327270508 10.98580455780029 19.39928436279297 10.95547962188721 19.4433479309082 10.95547962188721 C 19.55884742736816 10.95656681060791 20.30704689025879 11.09969234466553 23.69753456115723 13.81760406494141 C 25.69178581237793 15.41625499725342 27.85342216491699 17.30215454101563 29.31563568115234 18.60271644592285 L 29.59662246704102 18.85264205932617 L 29.9146842956543 18.65201759338379 C 33.35392379760742 16.48260498046875 37.10188674926758 14.92885494232178 41.05448532104492 14.03391742706299 L 41.41765975952148 13.95167922973633 L 41.44292068481445 13.58017921447754 C 41.57534790039063 11.63256740570068 41.79237365722656 8.779129981994629 42.07414627075195 6.245579719543457 C 42.54922866821289 1.974017262458801 42.92242050170898 1.294579744338989 42.99911499023438 1.196982264518738 C 43.03058242797852 1.170570135116577 43.37269592285156 0.9174354672431946 45.11232376098633 0.7130420207977295 C 46.28164672851563 0.5756545066833496 47.75151062011719 0.5000045299530029 49.25114822387695 0.5000045299530029 C 52.93174743652344 0.5000045299530029 54.732421875 0.9287670254707336 55.00288391113281 1.199029564857483 C 55.08340835571289 1.281192064285278 55.51067352294922 1.911067008972168 55.98573684692383 6.22577953338623 C 56.26529693603516 8.76484203338623 56.46024703979492 11.62615489959717 56.57455825805664 13.5793924331665 L 56.59652328491211 13.95456695556641 L 56.96300888061523 14.03776741027832 C 60.91683578491211 14.93541717529297 64.66429901123047 16.49123001098633 68.10129547119141 18.66197967529297 L 68.41633605957031 18.86094284057617 L 68.69705963134766 18.61594200134277 C 70.16804504394531 17.33221626281738 72.33960723876953 15.46751689910889 74.33139801025391 13.87434196472168 C 77.69155120849609 11.18662929534912 78.43609619140625 10.97038173675537 78.55921936035156 10.95568466186523 C 78.59934234619141 10.95923614501953 79.00348663330078 11.01990222930908 80.30929565429688 12.04007911682129 C 81.18947601318359 12.72772979736328 82.24375915527344 13.66897964477539 83.27796173095703 14.69044208526611 C 84.33293151855469 15.73244190216064 85.28675079345703 16.78005409240723 85.96369934082031 17.64029121398926 C 87.01418304443359 18.97522926330566 87.04450988769531 19.40046691894531 87.04450988769531 19.44455528259277 C 87.04341125488281 19.56015396118164 86.90008544921875 20.30909156799316 84.17814636230469 23.70404243469238 C 82.57820892333984 25.6995677947998 80.69183349609375 27.8615665435791 79.39109802246094 29.32385444641113 L 79.14145660400391 29.6044921875 L 79.34146881103516 29.92241668701172 C 81.50354766845703 33.35920333862305 83.05136108398438 37.10427856445313 83.94192504882813 41.05360412597656 L 84.02391052246094 41.41721725463867 L 84.39579772949219 41.44246673583984 C 86.34414672851563 41.57476806640625 89.19944763183594 41.79162979125977 91.73757171630859 42.07347869873047 C 96.02447509765625 42.54949569702148 96.70538330078125 42.92352294921875 96.80307006835938 43.00031661987305 C 96.82890319824219 43.03116226196289 97.07183837890625 43.3597526550293 97.27391052246094 45.00461578369141 C 97.41009521484375 46.11322784423828 97.49008178710938 47.52434158325195 97.49913787841797 48.97799301147461 C 97.50836944580078 50.4608039855957 97.44210052490234 51.87607955932617 97.31253814697266 52.96308135986328 C 97.11145782470703 54.64986801147461 96.832275390625 54.97196578979492 96.80109405517578 55.00314331054688 C 96.71842193603516 55.08425521850586 96.0859375 55.51329040527344 91.74697113037109 55.98974227905273 C 89.20040130615234 56.26937866210938 86.33612060546875 56.46400451660156 84.3817138671875 56.57802963256836 L 84.00685119628906 56.59990310668945 L 83.92334747314453 56.96599197387695 C 83.02597045898438 60.90058135986328 81.47662353515625 64.63043212890625 79.31833648681641 68.05195617675781 L 79.11767578125 68.37007904052734 L 79.36769866943359 68.65107727050781 C 80.66919708251953 70.11383056640625 82.5574951171875 72.27735137939453 84.16226196289063 74.27765655517578 C 86.89910888671875 77.68907928466797 87.04338836669922 78.44068908691406 87.04450988769531 78.55673217773438 C 87.04450988769531 78.93936920166016 86.07439422607422 80.51626586914063 83.47122192382813 83.118408203125 C 82.41140747070313 84.17860412597656 81.3189697265625 85.16425323486328 80.39501190185547 85.89394378662109 C 79.02739715576172 86.9739990234375 78.60406494140625 87.04132080078125 78.55889892578125 87.04546356201172 C 78.43422698974609 87.03036499023438 77.68379974365234 86.81060028076172 74.30058288574219 84.10198211669922 C 72.30149841308594 82.50149536132813 70.12737274169922 80.63355255126953 68.65552520751953 79.348388671875 L 68.37516021728516 79.10357666015625 L 68.06021118164063 79.30193328857422 C 64.63588714599609 81.45848846435547 60.90347290039063 83.00537872314453 56.96665954589844 83.89962005615234 L 56.60009765625 83.98287963867188 L 56.5782585144043 84.35813140869141 C 56.46444702148438 86.31302642822266 56.27012252807617 89.17887878417969 55.99063491821289 91.73016357421875 C 55.51363372802734 96.08438873291016 55.08389663696289 96.71868896484375 55.00258636474609 96.80162811279297 C 54.73246002197266 97.07138061523438 52.93142318725586 97.49999237060547 49.25027084350586 97.49999237060547 Z" stroke="none"/><path d="M 49.25027847290039 96.99999237060547 C 50.60043716430664 96.99999237060547 51.84241104125977 96.93891143798828 52.84194564819336 96.8233642578125 C 54.0583610534668 96.6827392578125 54.50743865966797 96.50743103027344 54.63801956176758 96.44320678710938 C 54.75688552856445 96.2078857421875 55.11569595336914 95.22106170654297 55.51909255981445 91.43995666503906 C 55.78475570678711 88.94984436035156 55.97026443481445 86.1986083984375 56.07910537719727 84.32907104492188 L 56.12279891967773 83.57855224609375 L 56.85590362548828 83.41203308105469 C 60.73742294311523 82.53036499023438 64.41744995117188 81.00518035888672 67.79375457763672 78.87884521484375 L 68.42366790771484 78.48215484619141 L 68.98438262939453 78.97176361083984 C 70.39949035644531 80.20738983154297 72.49639892578125 82.010009765625 74.44981384277344 83.58067321777344 C 77.30155944824219 85.87363433837891 78.27577972412109 86.40190124511719 78.56643676757813 86.523193359375 C 79.15232086181641 86.28795623779297 80.94690704345703 84.93640899658203 83.11774444580078 82.76477813720703 C 85.26966094970703 80.61373901367188 86.38423919677734 79.05290985107422 86.53435516357422 78.56425476074219 C 86.45494079589844 78.31910705566406 86.01824188232422 77.37338256835938 83.62359619140625 74.40577697753906 C 82.05225372314453 72.45845794677734 80.23876953125 70.38226318359375 78.99415588378906 68.98344421386719 L 78.49410247802734 68.42144775390625 L 78.89545440673828 67.78519439697266 C 81.02349090576172 64.41160583496094 82.55111694335938 60.73408508300781 83.43586730957031 56.85482025146484 L 83.60285186767578 56.12261962890625 L 84.35258483886719 56.07887268066406 C 86.22152709960938 55.96983337402344 88.97111511230469 55.78406143188477 91.45662689208984 55.51827239990234 C 95.22550201416016 55.11526107788086 96.20868682861328 54.75698852539063 96.44294738769531 54.63845825195313 C 96.50882720947266 54.50473785400391 96.69216918945313 54.03495788574219 96.83462524414063 52.74175262451172 C 96.94882202148438 51.70510101318359 97.00729370117188 50.37557983398438 96.99925231933594 48.99812698364258 C 96.98136901855469 45.93406677246094 96.66850280761719 43.91505813598633 96.43869018554688 43.37473678588867 C 96.14790344238281 43.25526428222656 95.08975982666016 42.94127655029297 91.47457122802734 42.54756546020508 C 88.98969268798828 42.27693939208984 86.23514556884766 42.06851196289063 84.36193084716797 41.94132614135742 L 83.61815643310547 41.89081954956055 L 83.45417022705078 41.16359329223633 C 82.57614135742188 37.26980590820313 81.05004119873047 33.57730102539063 78.91825103759766 30.18865966796875 L 78.51824951171875 29.55282020568848 L 79.01751708984375 28.99153900146484 C 80.26131439208984 27.59325981140137 82.07282257080078 25.51867294311523 83.63951873779297 23.57599258422852 C 86.01104736328125 20.63532257080078 86.45172882080078 19.68897819519043 86.53340911865234 19.4399356842041 C 86.4854736328125 19.29883193969727 86.28299713134766 18.83699798583984 85.46930694580078 17.82175254821777 C 84.81709289550781 17.00798034667969 83.91838073730469 16.02652549743652 82.93872833251953 15.05816650390625 C 80.75961303710938 12.9041919708252 79.11079406738281 11.69769954681396 78.56624603271484 11.47809314727783 C 78.27652740478516 11.59904289245605 77.30812072753906 12.12407112121582 74.48061370849609 14.39555263519287 C 72.53437042236328 15.95907306671143 70.44002532958984 17.75847244262695 69.02581024169922 18.99267196655273 L 68.46435546875 19.4826602935791 L 67.83428955078125 19.08472633361816 C 64.44548034667969 16.94439315795898 60.7505989074707 15.4104061126709 56.85230255126953 14.52536582946777 L 56.11933135986328 14.35895252227783 L 56.07541275024414 13.60860633850098 C 55.96611785888672 11.74092578887939 55.78003692626953 8.994339942932129 55.51431655883789 6.515913009643555 C 55.11279678344727 2.770862340927124 54.75621795654297 1.791148781776428 54.63796234130859 1.557055473327637 C 54.50750350952148 1.492852449417114 54.05855560302734 1.317488074302673 52.84211730957031 1.176752924919128 C 51.842529296875 1.061112880706787 50.60079574584961 0.999992847442627 49.25114440917969 0.999992847442627 C 46.17953872680664 0.999992847442627 43.95430755615234 1.313364505767822 43.37360763549805 1.561182379722595 C 43.25439071655273 1.851256132125854 42.94111633300781 2.906294345855713 42.54819869995117 6.508566379547119 C 42.27763748168945 8.989072799682617 42.069091796875 11.74171257019043 41.9417724609375 13.61409950256348 L 41.89125061035156 14.35711288452148 L 41.1649055480957 14.52156639099121 C 37.26786422729492 15.40392589569092 33.57250595092773 16.93588638305664 30.18145179748535 19.07489967346191 L 29.54533004760742 19.47616577148438 L 28.98334503173828 18.9763126373291 C 27.58514404296875 17.73270034790039 25.51091766357422 15.92165946960449 23.56950378417969 14.35623264312744 C 20.63315582275391 11.98856449127197 19.68775177001953 11.54827976226807 19.43881988525391 11.46661472320557 C 19.29765319824219 11.51462745666504 18.83585166931152 11.71726703643799 17.82082366943359 12.53099250793457 C 17.00711822509766 13.18332576751709 16.02574348449707 14.08212661743164 15.05749130249023 15.06184577941895 C 12.90366649627686 17.24115180969238 11.69726848602295 18.8900260925293 11.47769355773926 19.43455123901367 C 11.59869194030762 19.72443580627441 12.12429523468018 20.69389724731445 14.3996639251709 23.52585983276367 C 15.96421051025391 25.47312545776367 17.76418495178223 27.5679931640625 18.99867820739746 28.98247337341309 L 19.48802375793457 29.54318046569824 L 19.09145164489746 30.17291259765625 C 16.95425033569336 33.56659317016602 15.42477130889893 37.2643928527832 14.54549121856689 41.16357803344727 L 14.38150405883789 41.89080810546875 L 13.63773059844971 41.94131469726563 C 11.7644510269165 42.06851196289063 9.00983715057373 42.27695465087891 6.525064468383789 42.54755401611328 C 2.909340381622314 42.94132995605469 1.851401090621948 43.25535202026367 1.560798525810242 43.37478256225586 C 1.313138008117676 43.9552001953125 0.9999975562095642 46.17969512939453 0.9999975562095642 49.25065994262695 C 0.9999975562095642 50.59988784790039 1.061157584190369 51.84177780151367 1.176850914955139 52.84208679199219 C 1.31756591796875 54.05865097045898 1.492788314819336 54.50794982910156 1.556999444961548 54.63862991333008 C 1.791854381561279 54.75733184814453 2.775888681411743 55.11545181274414 6.543024063110352 55.51827239990234 C 9.028557777404785 55.78406143188477 11.77817058563232 55.96983337402344 13.64713096618652 56.07887268066406 L 14.39687728881836 56.12261962890625 L 14.56386470794678 56.8548469543457 C 15.44971752166748 60.73933792114258 16.98063850402832 64.42204284667969 19.1141300201416 67.80063629150391 L 19.51203727722168 68.43076324462891 L 19.02193069458008 68.99219512939453 C 17.7866382598877 70.40728759765625 15.98471736907959 72.50386047363281 14.41559791564941 74.45585632324219 C 12.12674522399902 77.30317687988281 11.59893321990967 78.2763671875 11.47763919830322 78.56689453125 C 11.71295166015625 79.15268707275391 13.06447696685791 80.94738006591797 15.23586463928223 83.11876678466797 C 16.18989181518555 84.07277679443359 17.11103820800781 84.90755462646484 17.89974403381348 85.53284454345703 C 18.8598747253418 86.29403686523438 19.30137252807617 86.4876708984375 19.43892097473145 86.53455352783203 C 19.68902587890625 86.45247650146484 20.64026832580566 86.00911712646484 23.60017013549805 83.62020874023438 C 25.54886436462402 82.04743194580078 27.62565040588379 80.23313903808594 29.02470397949219 78.98808288574219 L 29.58595848083496 78.48861694335938 L 30.2219181060791 78.88863372802734 C 33.59949111938477 81.01303100585938 37.27986526489258 82.53616333007813 41.16079711914063 83.41571044921875 L 41.88714599609375 83.58032989501953 L 41.93747711181641 84.32339477539063 C 42.06444931030273 86.19768524169922 42.27263641357422 88.95504760742188 42.54335784912109 91.44718170166016 C 42.9385871887207 95.08544921875 43.25387954711914 96.14789581298828 43.37362289428711 96.439208984375 C 43.95404052734375 96.68684387207031 46.17881011962891 96.99999237060547 49.25027847290039 96.99999237060547 M 49.25027847290039 97.99999237060547 C 46.25123596191406 97.99999237060547 43.18424987792969 97.69600677490234 42.64334487915039 97.15502166748047 C 41.83477020263672 96.346435546875 41.18979644775391 88.08176422119141 40.93976974487305 84.39097595214844 C 36.89189147949219 83.47359466552734 33.09917068481445 81.87969970703125 29.68950462341309 79.73511505126953 C 26.94970512390137 82.17332458496094 20.76309013366699 87.54571533203125 19.44335746765137 87.54571533203125 C 18.62126350402832 87.54571533203125 16.50227737426758 85.79937744140625 14.52875804901123 83.82587432861328 C 12.40815734863281 81.70527648925781 10.45509052276611 79.32154083251953 10.45509052276611 78.55664825439453 C 10.45509052276611 77.41445922851563 15.8325309753418 71.12516784667969 18.26859664916992 68.33456420898438 C 16.11503791809082 64.92417907714844 14.51285076141357 61.12879180908203 13.58889102935791 57.07717895507813 C 9.916224479675293 56.86289978027344 1.776077628135681 56.28778076171875 0.8449442386627197 55.35668563842773 C 0.2639575898647308 54.77484512329102 -2.423095793346874e-06 52.04216766357422 -2.423095793346874e-06 49.25065994262695 C -2.423095793346874e-06 46.25239181518555 0.3040375709533691 43.18548583984375 0.8449442386627197 42.64451217651367 C 1.650704264640808 41.83879470825195 9.86011791229248 41.19552612304688 13.56998443603516 40.94360733032227 C 14.48754405975342 36.87466049194336 16.08853149414063 33.06472778320313 18.24526405334473 29.6400203704834 C 15.79819774627686 26.83616638183594 10.45509052276611 20.58367347717285 10.45509052276611 19.44455337524414 C 10.45509052276611 17.96788597106934 17.73702430725098 10.45548629760742 19.44335746765137 10.45548629760742 C 20.75651741027832 10.45548629760742 26.88786506652832 15.77417945861816 29.6479434967041 18.22911262512207 C 33.07003784179688 16.07051277160645 36.87752914428711 14.46699333190918 40.94407653808594 13.54625988006592 C 41.19709014892578 9.825179100036621 41.83931732177734 1.64935290813446 42.64334487915039 0.8453528881072998 C 43.18426513671875 0.3044325113296509 46.2520637512207 -5.692545528290793e-07 49.25114440917969 -5.692545528290793e-07 C 52.04241943359375 -5.692545528290793e-07 54.77407073974609 0.2635180950164795 55.35631942749023 0.8453528881072998 C 56.28348922729492 1.773219585418701 56.85771942138672 9.859513282775879 57.07370376586914 13.55017948150635 C 61.13935852050781 14.473219871521 64.94755554199219 16.0787525177002 68.36829376220703 18.23923301696777 C 71.17622375488281 15.78873920440674 77.41822052001953 10.45548629760742 78.55625152587891 10.45548629760742 C 80.03289031982422 10.45548629760742 87.54451751708984 17.73744583129883 87.54451751708984 19.44455337524414 C 87.54451751708984 20.75884628295898 82.21654510498047 26.89979362487793 79.76469421386719 29.65616607666016 C 81.91680908203125 33.07714080810547 83.51343536376953 36.88039398193359 84.42967987060547 40.94361877441406 C 88.13954162597656 41.19552612304688 96.34890747070313 41.83879470825195 97.1546630859375 42.64451217651367 C 98.19902801513672 43.68887329101563 98.36159515380859 54.14970016479492 97.1546630859375 55.35668563842773 C 96.22353363037109 56.28778076171875 88.08345031738281 56.86289978027344 84.41082763671875 57.07717895507813 C 83.48807525634766 61.1230583190918 81.89012908935547 64.91207122802734 79.74123382568359 68.31871032714844 C 82.18221282958984 71.06208801269531 87.54451751708984 77.23870086669922 87.54451751708984 78.55664825439453 C 87.54451751708984 79.37955474853516 85.79901123046875 81.49852752685547 83.82470703125 83.47203063964844 C 81.70488739013672 85.59262084960938 79.32115936279297 87.54571533203125 78.55625152587891 87.54571533203125 C 77.41242218017578 87.54571533203125 71.11342620849609 82.15834045410156 68.32666778564453 79.72502136230469 C 64.91742706298828 81.87208557128906 61.12571716308594 83.46763610839844 57.07741165161133 84.38719177246094 C 56.86429214477539 88.04804992675781 56.28882598876953 96.22186279296875 55.35631942749023 97.15502166748047 C 54.77366256713867 97.73686218261719 52.04180908203125 97.99999237060547 49.25027847290039 97.99999237060547 Z" stroke="none" fill="#4d330e"/></g></g><g transform="translate(40.034 40.039)" fill="#fff" stroke="#4d330e" stroke-width="1"><circle cx="19" cy="19" r="19" stroke="none"/><circle cx="19" cy="19" r="18.5" fill="none"/></g></g></g></svg>