<svg xmlns="http://www.w3.org/2000/svg" xmlns:xlink="http://www.w3.org/1999/xlink" width="128" height="128" viewBox="0 0 128 128"><defs><filter id="a" x="5.548" y="5.463" width="120.1" height="120.1" filterUnits="userSpaceOnUse"><feOffset dx="1" dy="2" input="SourceAlpha"/><feGaussianBlur stdDeviation="3" result="b"/><feFlood flood-color="#251a0a" flood-opacity="0.302"/><feComposite operator="in" in2="b"/><feComposite in="SourceGraphic"/></filter><filter id="c" x="22.017" y="12.58" width="58.775" height="62.336" filterUnits="userSpaceOnUse"><feOffset dx="0.5" input="SourceAlpha"/><feGaussianBlur stdDeviation="0.5" result="d"/><feFlood flood-opacity="0.302"/><feComposite operator="in" in2="d"/><feComposite in="SourceGraphic"/></filter><filter id="e" x="63.947" y="33.61" width="54.351" height="54.351" filterUnits="userSpaceOnUse"><feOffset dx="1" dy="2" input="SourceAlpha"/><feGaussianBlur stdDeviation="3" result="f"/><feFlood flood-color="#251a0a" flood-opacity="0.302"/><feComposite operator="in" in2="f"/><feComposite in="SourceGraphic"/></filter><filter id="g" x="27.962" y="55.989" width="47.373" height="47.373" filterUnits="userSpaceOnUse"><feOffset dx="1" dy="2" input="SourceAlpha"/><feGaussianBlur stdDeviation="3" result="h"/><feFlood flood-color="#251a0a" flood-opacity="0.302"/><feComposite operator="in" in2="h"/><feComposite in="SourceGraphic"/></filter><clipPath id="j"><rect width="128" height="128"/></clipPath></defs><g id="i" clip-path="url(#j)"><g transform="translate(-24.452 -21.409)"><g transform="translate(38 33.871)"><g transform="matrix(1, 0, 0, 1, -13.55, -12.46)" filter="url(#a)"><g transform="translate(13.55 12.46)" fill="#f7ad45" stroke="#4d330e" stroke-width="1"><circle cx="51.05" cy="51.05" r="51.05" stroke="none"/><circle cx="51.05" cy="51.05" r="50.55" fill="none"/></g></g><circle cx="35.924" cy="35.924" r="35.924" transform="translate(15.126 15.126)" fill="#f6c074"/></g><g transform="matrix(0.891, -0.454, 0.454, 0.891, 47.469, 53.066)"><g transform="matrix(0.819, 0.574, -0.574, 0.819, 38.015, 1.751)"><g fill="#b18c6c"><path d="M 33.67890167236328 46.36750030517578 L 5.037301063537598 46.36750030517578 C 3.658961057662964 46.36750030517578 2.537600994110107 45.24613952636719 2.537600994110107 43.86780166625977 L 2.537600994110107 15.48091983795166 L 2.537600994110107 15.28812026977539 L 2.408150911331177 15.14523029327393 C 1.142001032829285 13.74759006500244 0.5000010132789612 12.25142002105713 0.5000010132789612 10.6983003616333 C 0.5000010132789612 8.030890464782715 2.421931028366089 5.499730110168457 5.911741256713867 3.571080207824707 C 9.495221138000488 1.590660095214844 14.27056121826172 0.5000001788139343 19.35810089111328 0.5000001788139343 C 24.44603157043457 0.5000001788139343 29.22165107727051 1.590660095214844 32.80525970458984 3.571080207824707 C 36.29513931274414 5.499710083007813 38.21710205078125 8.03087043762207 38.21710205078125 10.6983003616333 C 38.21710205078125 12.25174999237061 37.57482147216797 13.74822044372559 36.30809020996094 15.14613056182861 L 36.1786003112793 15.28903007507324 L 36.1786003112793 15.4818696975708 L 36.1786003112793 43.86780166625977 C 36.1786003112793 45.24613952636719 35.0572395324707 46.36750030517578 33.67890167236328 46.36750030517578 Z" stroke="none"/><path d="M 33.67890167236328 45.86750030517578 C 34.78153991699219 45.86750030517578 35.6786003112793 44.97043991088867 35.6786003112793 43.86780166625977 L 35.6786003112793 15.4818696975708 L 35.6786003112793 15.09619045257568 L 35.93758010864258 14.81039047241211 C 37.11838150024414 13.50730037689209 37.71710205078125 12.12378978729248 37.71710205078125 10.6983003616333 C 37.71710205078125 9.478819847106934 37.27453994750977 8.28225040435791 36.40171051025391 7.141819953918457 C 35.51110076904297 5.978160381317139 34.21972274780273 4.924030303955078 32.56341171264648 4.008700370788574 C 29.0526008605957 2.068510055541992 24.36286163330078 1.00000011920929 19.35810089111328 1.00000011920929 C 14.35373115539551 1.00000011920929 9.664280891418457 2.068510055541992 6.153591156005859 4.008700370788574 C 4.497331142425537 4.924030303955078 3.205971002578735 5.978160381317139 2.315381050109863 7.141809940338135 C 1.442561030387878 8.28225040435791 1.000001072883606 9.478819847106934 1.000001072883606 10.6983003616333 C 1.000001072883606 12.12349033355713 1.598441004753113 13.50671005249023 2.778711080551147 14.80953025817871 L 3.037600994110107 15.09531021118164 L 3.037600994110107 15.48091983795166 L 3.037600994110107 43.86780166625977 C 3.037600994110107 44.97043991088867 3.934660911560059 45.86750030517578 5.037301063537598 45.86750030517578 L 33.67890167236328 45.86750030517578 M 33.67890167236328 46.86750030517578 L 5.037301063537598 46.86750030517578 C 3.381300926208496 46.86750030517578 2.037600994110107 45.52470016479492 2.037600994110107 43.86780166625977 L 2.037600994110107 15.48091983795166 C 0.7338210344314575 14.04174995422363 1.025390588438313e-06 12.41740989685059 1.025390588438313e-06 10.6983003616333 C 1.025390588438313e-06 4.78980016708374 8.667000770568848 1.525878872143949e-07 19.35810089111328 1.525878872143949e-07 C 30.05010032653809 1.525878872143949e-07 38.71710205078125 4.78980016708374 38.71710205078125 10.6983003616333 C 38.71710205078125 12.41777038574219 37.9829216003418 14.04246997833252 36.6786003112793 15.4818696975708 L 36.6786003112793 43.86780166625977 C 36.6786003112793 45.52470016479492 35.33580017089844 46.86750030517578 33.67890167236328 46.86750030517578 Z" stroke="none" fill="#4d330e"/></g><path d="M3.64,40.03a2,2,0,0,1-2-2V10.487A4.477,4.477,0,0,1,0,7.247C0,3.245,6.975,0,15.579,0s15.58,3.245,15.58,7.247a4.477,4.477,0,0,1-1.64,3.24V38.03a2,2,0,0,1-2,2Z" transform="translate(3.779 3.419)" fill="#e1b894"/></g><g transform="translate(0 0)"><g transform="matrix(0.89, 0.45, -0.45, 0.89, -6.14, -38.66)" filter="url(#c)"><g transform="matrix(0.89, -0.45, 0.45, 0.89, 23.02, 31.66)" fill="#b18c6c"><path d="M 33.67890167236328 46.36750030517578 L 5.037301063537598 46.36750030517578 C 3.658961057662964 46.36750030517578 2.537600994110107 45.24613952636719 2.537600994110107 43.86780166625977 L 2.537600994110107 15.48091983795166 L 2.537600994110107 15.28812026977539 L 2.408150911331177 15.14523029327393 C 1.142001032829285 13.74759006500244 0.5000010132789612 12.25142002105713 0.5000010132789612 10.6983003616333 C 0.5000010132789612 8.030890464782715 2.421931028366089 5.499730110168457 5.911741256713867 3.571080207824707 C 9.495221138000488 1.590660095214844 14.27056121826172 0.5000001788139343 19.35810089111328 0.5000001788139343 C 24.44603157043457 0.5000001788139343 29.22165107727051 1.590660095214844 32.80525970458984 3.571080207824707 C 36.29513931274414 5.499710083007813 38.21710205078125 8.03087043762207 38.21710205078125 10.6983003616333 C 38.21710205078125 12.25174999237061 37.57482147216797 13.74822044372559 36.30809020996094 15.14613056182861 L 36.1786003112793 15.28903007507324 L 36.1786003112793 15.4818696975708 L 36.1786003112793 43.86780166625977 C 36.1786003112793 45.24613952636719 35.0572395324707 46.36750030517578 33.67890167236328 46.36750030517578 Z" stroke="none"/><path d="M 33.67890167236328 45.86750030517578 C 34.78153991699219 45.86750030517578 35.6786003112793 44.97043991088867 35.6786003112793 43.86780166625977 L 35.6786003112793 15.4818696975708 L 35.6786003112793 15.09619045257568 L 35.93758010864258 14.81039047241211 C 37.11838150024414 13.50730037689209 37.71710205078125 12.12378978729248 37.71710205078125 10.6983003616333 C 37.71710205078125 9.478819847106934 37.27453994750977 8.28225040435791 36.40171051025391 7.141819953918457 C 35.51110076904297 5.978160381317139 34.21972274780273 4.924030303955078 32.56341171264648 4.008700370788574 C 29.0526008605957 2.068510055541992 24.36286163330078 1.00000011920929 19.35810089111328 1.00000011920929 C 14.35373115539551 1.00000011920929 9.664280891418457 2.068510055541992 6.153591156005859 4.008700370788574 C 4.497331142425537 4.924030303955078 3.205971002578735 5.978160381317139 2.315381050109863 7.141809940338135 C 1.442561030387878 8.28225040435791 1.000001072883606 9.478819847106934 1.000001072883606 10.6983003616333 C 1.000001072883606 12.12349033355713 1.598441004753113 13.50671005249023 2.778711080551147 14.80953025817871 L 3.037600994110107 15.09531021118164 L 3.037600994110107 15.48091983795166 L 3.037600994110107 43.86780166625977 C 3.037600994110107 44.97043991088867 3.934660911560059 45.86750030517578 5.037301063537598 45.86750030517578 L 33.67890167236328 45.86750030517578 M 33.67890167236328 46.86750030517578 L 5.037301063537598 46.86750030517578 C 3.381300926208496 46.86750030517578 2.037600994110107 45.52470016479492 2.037600994110107 43.86780166625977 L 2.037600994110107 15.48091983795166 C 0.7338210344314575 14.04174995422363 1.025390588438313e-06 12.41740989685059 1.025390588438313e-06 10.6983003616333 C 1.025390588438313e-06 4.78980016708374 8.667000770568848 1.525878872143949e-07 19.35810089111328 1.525878872143949e-07 C 30.05010032653809 1.525878872143949e-07 38.71710205078125 4.78980016708374 38.71710205078125 10.6983003616333 C 38.71710205078125 12.41777038574219 37.9829216003418 14.04246997833252 36.6786003112793 15.4818696975708 L 36.6786003112793 43.86780166625977 C 36.6786003112793 45.52470016479492 35.33580017089844 46.86750030517578 33.67890167236328 46.86750030517578 Z" stroke="none" fill="#4d330e"/></g></g><path d="M3.64,40.03a2,2,0,0,1-2-2V10.487A4.477,4.477,0,0,1,0,7.247C0,3.245,6.975,0,15.579,0s15.58,3.245,15.58,7.247a4.477,4.477,0,0,1-1.64,3.24V38.03a2,2,0,0,1-2,2Z" transform="translate(3.779 3.419)" fill="#e1b894"/></g></g><g transform="translate(96.4 62.019)"><g transform="matrix(0.839, 0.545, -0.545, 0.839, 25.35, 8.013)"><g transform="translate(0 0)" fill="#ff756d" stroke="#4d330e" stroke-width="1"><circle cx="14.181" cy="14.181" r="14.181" stroke="none"/><circle cx="14.181" cy="14.181" r="13.681" fill="none"/></g><path d="M.009,3.684C.279,2.4,3.835,0,7.654,0a10.041,10.041,0,0,1,7.432,3.684c.539.909-4.566,4.009-5.082,3.875s1.384-2.78,1.193-3.667c-.5-.746-2.83.4-3.543.4-.969-.006-3.251-1.169-3.6-.4-.17.961,2.329,3.535,1.81,3.667S-.26,4.964.009,3.684Z" transform="translate(6.618 3.781)" fill="#db3f40"/><path d="M.009,3.684C.279,2.4,3.835,0,7.654,0a10.041,10.041,0,0,1,7.432,3.684c.539.909-4.566,4.009-5.082,3.875s1.384-2.78,1.193-3.667c-.5-.746-2.83.4-3.543.4-.969-.006-3.251-1.169-3.6-.4-.17.961,2.329,3.535,1.81,3.667S-.26,4.964.009,3.684Z" transform="translate(9.029 26.244) rotate(-120)" fill="#db3f40"/><path d="M.009,3.684C.279,2.4,3.835,0,7.654,0a10.041,10.041,0,0,1,7.432,3.684c.539.909-4.566,4.009-5.082,3.875s1.384-2.78,1.193-3.667c-.5-.746-2.83.4-3.543.4-.969-.006-3.251-1.169-3.6-.4-.17.961,2.329,3.535,1.81,3.667S-.26,4.964.009,3.684Z" transform="translate(26.995 13.256) rotate(121)" fill="#db3f40"/></g><g transform="translate(0 9.7) rotate(-20)"><g transform="matrix(0.94, 0.34, -0.34, 0.94, -50.4, -71.88)" filter="url(#e)"><g transform="matrix(0.94, -0.34, 0.34, 0.94, 71.95, 50.31)" fill="#ff756d" stroke="#4d330e" stroke-width="1"><circle cx="14.181" cy="14.181" r="14.181" stroke="none"/><circle cx="14.181" cy="14.181" r="13.681" fill="none"/></g></g><path d="M.009,3.684C.279,2.4,3.835,0,7.654,0a10.041,10.041,0,0,1,7.432,3.684c.539.909-4.566,4.009-5.082,3.875s1.384-2.78,1.193-3.667c-.5-.746-2.83.4-3.543.4-.969-.006-3.251-1.169-3.6-.4-.17.961,2.329,3.535,1.81,3.667S-.26,4.964.009,3.684Z" transform="translate(6.618 3.781)" fill="#db3f40"/><path d="M.009,3.684C.279,2.4,3.835,0,7.654,0a10.041,10.041,0,0,1,7.432,3.684c.539.909-4.566,4.009-5.082,3.875s1.384-2.78,1.193-3.667c-.5-.746-2.83.4-3.543.4-.969-.006-3.251-1.169-3.6-.4-.17.961,2.329,3.535,1.81,3.667S-.26,4.964.009,3.684Z" transform="translate(9.029 26.244) rotate(-120)" fill="#db3f40"/><path d="M.009,3.684C.279,2.4,3.835,0,7.654,0a10.041,10.041,0,0,1,7.432,3.684c.539.909-4.566,4.009-5.082,3.875s1.384-2.78,1.193-3.667c-.5-.746-2.83.4-3.543.4-.969-.006-3.251-1.169-3.6-.4-.17.961,2.329,3.535,1.81,3.667S-.26,4.964.009,3.684Z" transform="translate(26.995 13.256) rotate(121)" fill="#db3f40"/></g></g><g transform="translate(72.883 64.866) rotate(42)"><path d="M44.82,2.122c-9.491-2.972-12.853,8.636-21.1,0s-31.465,11.231-21.1,21.1S-.6,60.679,23.718,49.517c11.842-8.929,10.331-4.8,21.1-5.19s8.557-10.551,5.919-21.1S54.311,5.094,44.82,2.122Z" transform="translate(0 0)" fill="#fff" stroke="#4d330e" stroke-width="1"/><g transform="matrix(0.74, -0.67, 0.67, 0.74, -65.07, 0.11)" filter="url(#g)"><g transform="translate(49.88 62.99) rotate(42)" fill="#fdcf76" stroke="#4d330e" stroke-width="1"><circle cx="10.399" cy="10.399" r="10.399" stroke="none"/><circle cx="10.399" cy="10.399" r="9.899" fill="none"/></g></g><circle cx="2.836" cy="2.836" r="2.836" transform="translate(16.444 22.358) rotate(-42)" fill="#fcecce"/></g><g transform="matrix(-0.839, 0.545, -0.545, -0.839, 141.991, 119.835)"><g transform="translate(28.584 0) rotate(47)"><path d="M19.713,37.809C18.3,38.5,11.6,34.623,8.07,33.962c-3.009-.555-3.633-2.921-2.319-5.056-1.676-.887-3.023-3.088-1.84-4.961-1.511-.92-3.384-3.022-2.053-4.8-1.5-1.478-2.809-4.5-.805-5.848C-.162,10.181-.294,8.44.495,7.356A4.374,4.374,0,0,1,3.057,6.013S2.535,2.034,4.964.489s5.229.926,6.211,2.418c2.329-1.5,4.771-.447,6.211,3.791,3.411.788,3.105,2.42,3.105,4.665a4.486,4.486,0,0,1,2.244,5.256s1.873.575,2.135,1.815a7.477,7.477,0,0,1-.361,3.106A2.87,2.87,0,0,1,26.7,23.946,5.283,5.283,0,0,1,25.4,27.751C22.505,32.487,21.421,37.776,19.713,37.809Z" transform="translate(0 0)" fill="#c1cd97" stroke="#4d330e" stroke-width="1"/><path d="M13.349,28.722,10.042,20.7S6.627,15.7,2.859,14.349A15.464,15.464,0,0,1,9.582,18.6l-3.389-8.41S3.244,7.279.76,6.509c4.163.972,5.433,2.429,5.433,2.429S2.971,1.7,2.092.235,5.523,4.629,5.523,4.629,6.235,1.156,6.988.235a43.994,43.994,0,0,0-.8,5.23l3.389,8.662s-.126-7.7,1.757-9.5c-.837,2.468-1.3,9-.753,11.423a46.452,46.452,0,0,0,2.887,7.155s-.042-10.126,2.343-12.218c-1.3,3.055-1.925,11.046-1.256,13.724a21.436,21.436,0,0,0,1.062,3.135c-.374.549-.75.87-1.162.878a1,1,0,0,1-.437.081A3.309,3.309,0,0,1,13.349,28.722ZM2.092,14.127a6.065,6.065,0,0,1,.767.222Q2.485,14.23,2.092,14.127ZM0,6.344a4.159,4.159,0,0,1,.76.165Q.4,6.424,0,6.344Z" transform="translate(5.162 8.877)" fill="#e7efc9"/></g><g transform="translate(0 7.487)"><path d="M19.713,37.809C18.3,38.5,11.6,34.623,8.07,33.962c-3.009-.555-3.633-2.921-2.318-5.056-1.676-.887-3.023-3.088-1.84-4.961-1.511-.92-3.384-3.022-2.053-4.8-1.5-1.478-2.81-4.5-.806-5.848C-.162,10.181-.294,8.44.494,7.356A4.374,4.374,0,0,1,3.057,6.013S2.535,2.034,4.964.489s5.229.926,6.211,2.418c2.329-1.5,4.772-.447,6.211,3.791,3.411.788,3.106,2.42,3.106,4.665a4.486,4.486,0,0,1,2.243,5.256s1.873.575,2.135,1.815a7.479,7.479,0,0,1-.361,3.106A2.871,2.871,0,0,1,26.7,23.946,5.284,5.284,0,0,1,25.4,27.751C22.505,32.487,21.421,37.776,19.713,37.809Z" transform="translate(0 0)" fill="#c1cd97" stroke="#4d330e" stroke-width="1"/><path d="M13.309,28.626,10.041,20.7s-3.417-5-7.187-6.349A15.463,15.463,0,0,1,9.581,18.6l-3.389-8.41S3.242,7.278.758,6.51c4.163.972,5.434,2.429,5.434,2.429S2.971,1.7,2.091.235,5.522,4.629,5.522,4.629,6.235,1.157,6.986.235a44.211,44.211,0,0,0-.794,5.23l3.389,8.661s-.125-7.7,1.758-9.5c-.837,2.469-1.3,8.995-.753,11.423a46.5,46.5,0,0,0,2.887,7.155s-.041-10.126,2.344-12.218c-1.3,3.055-1.924,11.047-1.255,13.725a21.412,21.412,0,0,0,1.065,3.142,2.247,2.247,0,0,1-.83.91.777.777,0,0,1-.369.073A4.279,4.279,0,0,1,13.309,28.626ZM2.091,14.127a6.067,6.067,0,0,1,.763.221Q2.482,14.229,2.091,14.127ZM0,6.345a4.162,4.162,0,0,1,.758.165Q.394,6.425,0,6.345Z" transform="translate(4.828 8.204)" fill="#e7efc9"/></g></g></g></g></svg>