<svg xmlns="http://www.w3.org/2000/svg" xmlns:xlink="http://www.w3.org/1999/xlink" width="103.592" height="106.622" viewBox="0 0 103.592 106.622">
  <defs>
    <filter id="Path_17" x="54.778" y="38.06" width="45.36" height="45.419" filterUnits="userSpaceOnUse">
      <feOffset dy="3" input="SourceAlpha"/>
      <feGaussianBlur stdDeviation="3" result="blur"/>
      <feFlood flood-opacity="0.161"/>
      <feComposite operator="in" in2="blur"/>
      <feComposite in="SourceGraphic"/>
    </filter>
    <filter id="Path_14" x="26.443" y="46.575" width="37.08" height="49.956" filterUnits="userSpaceOnUse">
      <feOffset dy="3" input="SourceAlpha"/>
      <feGaussianBlur stdDeviation="3" result="blur-2"/>
      <feFlood flood-opacity="0.161"/>
      <feComposite operator="in" in2="blur-2"/>
      <feComposite in="SourceGraphic"/>
    </filter>
    <filter id="Path_12" x="6.996" y="34.035" width="47.044" height="50.821" filterUnits="userSpaceOnUse">
      <feOffset dy="3" input="SourceAlpha"/>
      <feGaussianBlur stdDeviation="3" result="blur-3"/>
      <feFlood flood-opacity="0.161"/>
      <feComposite operator="in" in2="blur-3"/>
      <feComposite in="SourceGraphic"/>
    </filter>
  </defs>
  <g id="Guests" transform="translate(-87.408 -966.524)">
    <path id="Intersection_11" data-name="Intersection 11" d="M-448.418-201c2.164-1.427,11.517-8.521,5.989-21.417-6.224-14.524-15.9-12.923-13.9-23.772s12.249-16.9,25.216-21.3,6.481-21.182,19.4-24.55c6.274-1.636,11.205,1.562,16.7,4.76,5.819,3.388,12.266,6.777,21.606,4.417,18.155-4.589,20.365-24.61,20.365-24.61l.036,3.85V-231a30,30,0,0,1-30,30Z" transform="translate(544 1274)" fill="rgba(246,192,116,0.29)"/>
    <g id="guests-2" data-name="guests" transform="translate(87.775 977.661)">
      <g id="Man" transform="translate(53.461 19.893)">
        <path id="Path_16" data-name="Path 16" d="M277.6,61.962h16.043s1.234,10.133,7.1,13.63c-11.518,5.553-34.245,4.731-29.206,0S277.6,61.962,277.6,61.962Z" transform="translate(-261.107 -26.188)" fill="#f1cdb0" stroke="#4d330e" stroke-width="1"/>
        <path id="Path_18" data-name="Path 18" d="M271.469,40.1s-3.4-15.915,7.507-15.447,12.147,4.517,14.675.585c1.17-3.23-2.9-3.511-2.9-3.511s4.727-3.37,6.576,4.4a29.561,29.561,0,0,1,0,13.972Z" transform="translate(-261.128 -20.626)" fill="#af6e4e" stroke="#4d330e" stroke-width="1"/>
        <g transform="matrix(1, 0, 0, 1, -53.83, -31.03)" filter="url(#Path_17)">
          <path id="Path_17-2" data-name="Path 17" d="M285.285,62.591c-3.136.047-11.562-6.132-13.013-8.191-.328-5.1-1.931-13,1.077-16.945s7.608,1.354,10.953,1.17,9.5-4.728,12.4-1.17c1.591,2.762,1.151,14.11,1.311,16.945C297.034,56.646,288.421,62.544,285.285,62.591Z" transform="translate(-207.38 8.39)" fill="#f1cdb0" stroke="#4d330e" stroke-width="1"/>
        </g>
        <g id="Dress" transform="translate(0.429 43.687)" fill="#c1cd97">
          <path d="M 48.38890075683594 31.31770133972168 L 0.9122010469436646 31.31770133972168 L 0.9122010469436646 18.04364013671875 L 0.9122010469436646 17.98373985290527 L 0.8980510234832764 17.9255313873291 C 0.6339210271835327 16.83901977539062 0.5000010132789612 15.71554088592529 0.5000010132789612 14.58630084991455 C 0.5000010132789612 10.8236608505249 1.965221047401428 7.286270618438721 4.625741004943848 4.625740528106689 C 7.286271095275879 1.96522068977356 10.8236608505249 0.5000006556510925 14.58630084991455 0.5000006556510925 L 34.32060241699219 0.5000006556510925 C 38.08285140991211 0.5000006556510925 41.61996078491211 1.965210676193237 44.28036117553711 4.625730514526367 C 46.94082260131836 7.286300659179688 48.40600204467773 10.82370090484619 48.40600204467773 14.58630084991455 C 48.40600204467773 14.8139009475708 48.40044021606445 15.04504108428955 48.38948059082031 15.27330112457275 L 48.38890075683594 15.28529071807861 L 48.38890075683594 15.29729080200195 L 48.38890075683594 31.31770133972168 Z" stroke="none"/>
          <path d="M 47.88890075683594 30.81770133972168 L 47.89005279541016 15.24931049346924 C 47.90063095092773 15.0290002822876 47.90600204467773 14.80593109130859 47.90600204467773 14.58630084991455 C 47.90600204467773 10.95725059509277 46.49283218383789 7.545410633087158 43.92679977416992 4.979280471801758 C 41.36083984375 2.413200616836548 37.94929122924805 1.000000715255737 34.32060241699219 1.000000715255737 L 14.58630084991455 1.000000715255737 C 10.95722103118896 1.000000715255737 7.54538106918335 2.41321063041687 4.979290962219238 4.97929048538208 C 2.413211107254028 7.545380592346191 1.000001072883606 10.95722103118896 1.000001072883606 14.58630084991455 C 1.000001072883606 15.67579078674316 1.12916100025177 16.75954055786133 1.383901000022888 17.80742073059082 L 1.412201046943665 17.92384147644043 L 1.412201046943665 30.81770133972168 L 47.88890075683594 30.81770133972168 M 48.88890075683594 31.81770133972168 L 0.4122010171413422 31.81770133972168 L 0.4122010171413422 18.04364013671875 C 0.1427410244941711 16.93519020080566 1.022338892653352e-06 15.77767086029053 1.022338892653352e-06 14.58630084991455 C 1.022338892653352e-06 6.53040075302124 6.530401229858398 6.698608103761217e-07 14.58630084991455 6.698608103761217e-07 L 34.32060241699219 6.698608103761217e-07 C 42.37560272216797 6.698608103761217e-07 48.90600204467773 6.53040075302124 48.90600204467773 14.58630084991455 C 48.90600204467773 14.8247709274292 48.90022277832031 15.06163024902344 48.88890075683594 15.29729080200195 L 48.88890075683594 31.81770133972168 Z" stroke="none" fill="#4d330e"/>
        </g>
        <path id="Intersection_2" data-name="Intersection 2" d="M0,75.129C6.32,54.524,12.8,24.51,5.285,4.185c6.5,1.133,7.712,3.342,9.8.077,1.17-3.248-2.9-3.531-2.9-3.531s4.728-3.389,6.576,4.424a30.788,30.788,0,0,1,.211,13.191c.481,4.513.283,11.038.4,13.1-.409.94-2.139,2.517-4.246,4.04a29.325,29.325,0,0,0,2.244,7.654A14.667,14.667,0,0,1,31.9,57.8c0,.238-.005.477-.017.713V75.129Z" transform="translate(17.438 0.125)" fill="rgba(37,26,10,0.05)"/>
        <path id="Intersection_3" data-name="Intersection 3" d="M.412,75.38V61.52a14.68,14.68,0,0,1,13.5-18.114,31.6,31.6,0,0,0,2.065-7.164,26.719,26.719,0,0,1-5.342-4.548c-.222-3.49-1.036-8.282-.586-12.237H9.913s-3.4-16,7.507-15.531a36.588,36.588,0,0,1,5.9.707c-.053-.148-.107-.3-.162-.446C27.3,4.909,29.3,6.07,30.739,5.966a4.115,4.115,0,0,0,1.355-1.453c1.17-3.248-2.9-3.531-2.9-3.531A4.532,4.532,0,0,1,30.847.31c1.429-.58,4.4-.973,5.778,4.845a30.784,30.784,0,0,1,.211,13.19c.481,4.512.284,11.037.4,13.1-.409.94-2.139,2.515-4.246,4.039a29.325,29.325,0,0,0,2.244,7.654A14.666,14.666,0,0,1,49.765,57.8c0,.238-.005.477-.017.713V75.128H48.89v.252Z" transform="translate(0 0)" fill="rgba(37,26,10,0.05)"/>
      </g>
      <g id="Woman" transform="translate(4.884 15.839)">
        <path id="Dress-2" data-name="Dress" d="M243.672,75.074s11.789-1.668,11.951,4.32.858,23.123.858,23.123h-53.6s.763-16.962.858-23.123,13.46-4.32,13.46-4.32,4.687-.916,4.747-4.567,14.334,0,14.334,0Z" transform="translate(-202.884 -23.371)" fill="#ff756d" stroke="#4d330e" stroke-width="1"/>
        <g id="Dress-3" data-name="Dress" transform="translate(0 44.578)">
          <path id="Dress-4" data-name="Dress" d="M243.672,75.074s11.789-1.668,11.951,4.32.858,23.123.858,23.123h-53.6s.763-16.962.858-23.123,13.46-4.32,13.46-4.32,4.687-.916,4.747-4.567,14.334,0,14.334,0Z" transform="translate(-202.884 -67.95)" fill="#ff756d" stroke="#4d330e" stroke-width="1"/>
          <g id="Path_19" data-name="Path 19" transform="translate(12.652 0)" fill="#db3f40">
            <path d="M 23.8065128326416 7.054775714874268 L 1.831273436546326 7.054775714874268 C 1.097213387489319 7.054775714874268 0.500003457069397 6.25208568572998 0.500003457069397 5.265445709228516 L 0.500003457069397 2.289325714111328 C 0.500003457069397 1.302685737609863 1.097213387489319 0.4999957084655762 1.831273436546326 0.4999957084655762 L 23.8065128326416 0.4999957084655762 C 24.54057312011719 0.4999957084655762 25.13778305053711 1.302685737609863 25.13778305053711 2.289325714111328 L 25.13778305053711 5.265445709228516 C 25.13778305053711 6.25208568572998 24.54057312011719 7.054775714874268 23.8065128326416 7.054775714874268 Z" stroke="none"/>
            <path d="M 1.831274032592773 0.9999957084655762 C 1.438093185424805 0.9999957084655762 1.000003814697266 1.529505729675293 1.000003814697266 2.289325714111328 L 1.000003814697266 5.265445709228516 C 1.000003814697266 6.025265693664551 1.438093185424805 6.554775714874268 1.831274032592773 6.554775714874268 L 23.8065128326416 6.554775714874268 C 24.19969367980957 6.554775714874268 24.63778305053711 6.025265693664551 24.63778305053711 5.265445709228516 L 24.63778305053711 2.289325714111328 C 24.63778305053711 1.529505729675293 24.19969367980957 0.9999957084655762 23.8065128326416 0.9999957084655762 L 1.831274032592773 0.9999957084655762 M 1.831274032592773 -4.291534423828125e-06 L 23.8065128326416 -4.291534423828125e-06 C 24.81790351867676 -4.291534423828125e-06 25.63778305053711 1.024965763092041 25.63778305053711 2.289325714111328 L 25.63778305053711 5.265445709228516 C 25.63778305053711 6.529805660247803 24.81790351867676 7.554775714874268 23.8065128326416 7.554775714874268 L 1.831274032592773 7.554775714874268 C 0.8198833465576172 7.554775714874268 3.814697265625e-06 6.529805660247803 3.814697265625e-06 5.265445709228516 L 3.814697265625e-06 2.289325714111328 C 3.814697265625e-06 1.024965763092041 0.8198833465576172 -4.291534423828125e-06 1.831274032592773 -4.291534423828125e-06 Z" stroke="none" fill="#4d330e"/>
          </g>
        </g>
        <g id="Face" transform="translate(3.853)">
          <path id="Path_15" data-name="Path 15" d="M222.926,59.318s-21.193-13.024-14.1-34.188c2.067-6.168,13.655-6.063,13.655-6.063s-.156-3.546,7.623-3.2c5.606.8,16.817,5.491,17.961,15.673a19.265,19.265,0,0,1-5.491,16.016Z" transform="translate(-207.374 -15.839)" fill="#fdcf76" stroke="#4d330e" stroke-width="1"/>
          <path id="Path_13" data-name="Path 13" d="M225,66.9l.429-4.869,12.95-.713V66.9" transform="translate(-209.877 -22.298)" fill="#f1cdb0" stroke="#4d330e" stroke-width="1"/>
          <g transform="matrix(1, 0, 0, 1, -9.1, -26.98)" filter="url(#Path_14)">
            <path id="Path_14-2" data-name="Path 14" d="M240.143,59.566s-.932,3.664-1.458,5.59c-.788,10.33,15.552,12.094,15.552,12.094s-2.987-1.2-4.476-7.156,5.376-4.05,6.864-10.528-13.161-13.075-13.161-13.075Z" transform="translate(-202.71 6.78)" fill="#fdcf76" stroke="#4d330e" stroke-width="1"/>
          </g>
          <g transform="matrix(1, 0, 0, 1, -9.1, -26.98)" filter="url(#Path_12)">
            <path id="Path_12-2" data-name="Path 12" d="M229.5,62.478c-2.158-.014-15.846-8.912-13.832-30.186,7.354-2.364,11.731-1.313,11.731-1.313s4.439,12.363,15.421,4.262C246.777,53.569,231.654,62.492,229.5,62.478Z" transform="translate(-198.96 9.88)" fill="#f1cdb0" stroke="#4d330e" stroke-width="1"/>
          </g>
        </g>
        <path id="shadow" d="M0,79.075A242.946,242.946,0,0,0,9.422,44.936h3.657c0-.015,0-.03,0-.044l.1-.358H9.721q-.127.068-.248.13C12.391,29.3,13.452,12.891,9.256,0c5.7.926,16.526,5.629,17.648,15.625a19.545,19.545,0,0,1-3.471,13.66c3.963,2.527,8.446,6.292,7.589,10.018-1.488,6.478-8.352,4.575-6.863,10.528.15.6.314,1.149.49,1.655,3.181-.218,10.324-.186,10.451,4.466.162,5.988.858,23.123.858,23.123Z" transform="translate(17.64 0)" fill="rgba(37,26,10,0.05)"/>
      </g>
    </g>
  </g>
</svg>
