<svg xmlns="http://www.w3.org/2000/svg" xmlns:xlink="http://www.w3.org/1999/xlink" width="128" height="128" viewBox="0 0 128 128"><defs><filter id="a" x="-0.492" y="8.533" width="120.926" height="113.913" filterUnits="userSpaceOnUse"><feOffset dx="1" dy="2" input="SourceAlpha"/><feGaussianBlur stdDeviation="3" result="b"/><feFlood flood-color="#251a0a" flood-opacity="0.298"/><feComposite operator="in" in2="b"/><feComposite in="SourceGraphic"/></filter><clipPath id="d"><rect width="128" height="128"/></clipPath></defs><g id="c" clip-path="url(#d)"><g transform="translate(-3.709 -5.86)"><g transform="matrix(1, 0, 0, 1, 3.71, 5.86)" filter="url(#a)"><path d="M805,82.87s23.921,12.432,26.193,32.5c2.037-4.763-5.872-18.4-5.872-18.4s24.527-23.4,30.872-24.864c5.019,4.111,10.038,10.67,24.243,6.852s23.093-18.546,24.906-21.242-4.981,6.943-11.553,7.44-11.435-1.077-20.55-7.44S857.425,45.966,857.331,39.7s5.493-12.628,19.414-17.816c-14.773,2.643-23.012,12.53-25.285,17.816s-6.724,12.432.947,28.094c-6.818,6.754-20.55,21.829-29.357,26.626-2.557-2.643-6.346-6.621-11.717-9.123S805,82.87,805,82.87Z" transform="translate(-795.71 -5.86)" fill="#b30739" stroke="#4d330e" stroke-linecap="round" stroke-width="1"/></g><text transform="matrix(0.995, -0.105, 0.105, 0.995, 76.449, 109.878)" fill="#b30739" stroke="#4d330e" stroke-width="1" font-size="36" font-family="TimesNewRomanPS-BoldMT, Times New Roman" font-weight="700"><tspan x="0" y="0">5</tspan></text><text transform="matrix(0.899, -0.438, 0.438, 0.899, 102.732, 105.527)" fill="#b30739" stroke="#4d330e" stroke-width="1" font-size="36" font-family="TimesNewRomanPS-BoldMT, Times New Roman" font-weight="700"><tspan x="0" y="0">7</tspan></text></g></g></svg>