<svg xmlns="http://www.w3.org/2000/svg" xmlns:xlink="http://www.w3.org/1999/xlink" width="430" height="102" viewBox="0 0 430 102">
  <defs>
    <filter id="second-page-wave" x="0" y="0" width="430" height="102" filterUnits="userSpaceOnUse">
      <feOffset dy="-3" input="SourceAlpha"/>
      <feGaussianBlur stdDeviation="3" result="blur"/>
      <feFlood flood-opacity="0.161"/>
      <feComposite operator="in" in2="blur"/>
      <feComposite in="SourceGraphic"/>
    </filter>
  </defs>
  <g transform="matrix(1, 0, 0, 1, 0, 0)" filter="url(#second-page-wave)">
    <path id="second-page-wave-2" data-name="second-page-wave" d="M413.177,84h-412L1.21,65.93a84.426,84.426,0,0,1,6.769-10.3A127.632,127.632,0,0,1,16.851,45.07a137.084,137.084,0,0,1,12.9-12.1A140.051,140.051,0,0,1,68.71,10.3,151.655,151.655,0,0,1,95.325,2.833,174.379,174.379,0,0,1,127.061,0c.805,0,1.588,0,2.394.015,23.568.292,47.7,4.767,73.787,13.681C226,21.472,247.292,31.622,266.081,40.577,294.317,54.036,318.7,65.658,339.36,65.658c.847,0,1.695-.02,2.52-.059,25.2-1.2,43.245-18.968,53.944-33.662a145.042,145.042,0,0,0,13.074-22c2.841-5.9,4.266-9.881,4.28-9.921V84Z" transform="translate(7.82 12)" fill="#fff"/>
  </g>
</svg>
