<svg xmlns="http://www.w3.org/2000/svg" xmlns:xlink="http://www.w3.org/1999/xlink" width="128" height="128" viewBox="0 0 128 128"><defs><filter id="a" x="30" y="21" width="72" height="72" filterUnits="userSpaceOnUse"><feOffset dx="1" dy="2" input="SourceAlpha"/><feGaussianBlur stdDeviation="3" result="b"/><feFlood flood-color="#251a0a" flood-opacity="0.302"/><feComposite operator="in" in2="b"/><feComposite in="SourceGraphic"/></filter><filter id="c" x="-4.694" y="32.878" width="141.431" height="87.259" filterUnits="userSpaceOnUse"><feOffset dx="1" dy="2" input="SourceAlpha"/><feGaussianBlur stdDeviation="3" result="d"/><feFlood flood-color="#251a0a" flood-opacity="0.298"/><feComposite operator="in" in2="d"/><feComposite in="SourceGraphic"/></filter><clipPath id="f"><rect width="128" height="128"/></clipPath></defs><g id="e" clip-path="url(#f)"><g transform="matrix(1, 0, 0, 1, 0, 0)" filter="url(#a)"><g transform="translate(38 28)" fill="#f7ad45" stroke="#4d330e" stroke-width="1"><circle cx="27" cy="27" r="27" stroke="none"/><circle cx="27" cy="27" r="26.5" fill="none"/></g></g><g transform="matrix(1, 0, 0, 1, 0, 0)" filter="url(#c)"><g fill="#af6e4e"><path d="M 64.67800903320313 108.636962890625 L 64.65177154541016 108.636360168457 C 60.82565689086914 108.5481109619141 47.30369186401367 107.7167129516602 33.94433975219727 100.7233810424805 C 25.67619132995605 96.39516448974609 18.9839916229248 90.49584197998047 14.0536413192749 83.18927764892578 C 11.14757442474365 78.88259887695313 8.823575019836426 74.02679443359375 7.146191596984863 68.75672912597656 C 5.304958343505859 62.97182846069336 4.196608066558838 56.54167938232422 3.851941585540771 49.64492797851563 C 3.667641401290894 45.9635124206543 4.01189136505127 41.58332824707031 4.906974792480469 40.62559509277344 C 5.022858142852783 40.50161361694336 5.095224857330322 40.50032806396484 5.118991374969482 40.49991226196289 L 5.134191513061523 40.4996452331543 L 5.149341583251953 40.49846267700195 C 5.157874584197998 40.49779510498047 5.166591644287109 40.49747848510742 5.175374984741211 40.49747848510742 C 5.347491264343262 40.49747848510742 5.758657932281494 40.61254501342773 6.578541278839111 41.38322830200195 C 7.228524684906006 41.99417877197266 8.015891075134277 42.90299606323242 8.985608100891113 44.16156005859375 C 10.84187507629395 46.57071304321289 13.13859176635742 49.96664428710938 15.79795837402344 53.89881134033203 C 21.70407485961914 62.63159561157227 29.05442428588867 73.49986267089844 37.4265251159668 82.42624664306641 C 47.40983963012695 93.07054138183594 56.32289123535156 98.24484252929688 64.67501068115234 98.24484252929688 C 72.62384033203125 98.24484252929688 81.17654418945313 93.31951141357422 90.82182312011719 83.1873779296875 C 98.96172332763672 74.63662719726563 106.3641586303711 63.95187759399414 112.3121109008789 55.36652755737305 C 115.3320388793945 51.00754547119141 117.9401245117188 47.24297714233398 120.09765625 44.53947830200195 C 121.2278900146484 43.12324523925781 122.1546249389648 42.09879684448242 122.9308547973633 41.40757751464844 C 123.8862075805664 40.55684661865234 124.4319610595703 40.37827682495117 124.7215423583984 40.37827682495117 C 124.8193588256836 40.37827682495117 124.9008560180664 40.39776229858398 124.9780426025391 40.43959426879883 C 125.2748413085938 40.60044479370117 125.9865264892578 41.45779418945313 126.1838607788086 45.93339538574219 C 126.3208923339844 49.04084396362305 126.1541748046875 52.79614639282227 126.0740737915039 54.60084533691406 C 125.9653396606445 56.96566009521484 125.5200729370117 59.55939483642578 124.7506942749023 62.30919647216797 C 123.9655914306641 65.11515808105469 122.8603744506836 68.01934814453125 121.4657440185547 70.94107818603516 C 118.47412109375 77.20848083496094 114.2654113769531 83.29904174804688 109.2945938110352 88.55435943603516 C 103.6459732055664 94.52626037597656 97.20970916748047 99.27887725830078 90.16455841064453 102.6801986694336 C 82.18679046630859 106.5317535400391 73.61217498779297 108.5358810424805 64.67800903320313 108.636962890625 Z" stroke="none"/><path d="M 124.7226486206055 39.87828063964844 L 124.7225189208984 40.87828063964844 C 124.6482467651367 40.87834167480469 124.2289123535156 40.92224884033203 123.2640686035156 41.78176116943359 C 122.5093994140625 42.45402526855469 121.6019821166992 43.45824432373047 120.4899520874023 44.85181427001953 C 118.3436660766602 47.54145812988281 115.7408981323242 51.29830932617188 112.727165222168 55.64836120605469 C 106.7691345214844 64.24824523925781 99.35414886474609 74.95109558105469 91.18673706054688 83.53070068359375 C 81.44097900390625 93.76824951171875 72.76893615722656 98.74484252929688 64.67499542236328 98.74484252929688 C 56.17716217041016 98.74484252929688 47.14481353759766 93.51887512207031 37.06181335449219 82.76829528808594 C 28.66251373291016 73.81289672851563 21.29981231689453 62.92637634277344 15.38376617431641 54.17890930175781 C 12.7711181640625 50.31582641601563 10.51476287841797 46.97956085205078 8.684318542480469 44.59009552001953 C 7.737335205078125 43.35389709472656 6.969032287597656 42.45513153076172 6.335548400878906 41.84241485595703 C 5.704574584960938 41.23212432861328 5.365608215332031 41.06202697753906 5.233711242675781 41.01496887207031 C 5.090873718261719 41.21055603027344 4.691963195800781 41.94586181640625 4.46173095703125 44.25459289550781 C 4.303733825683594 45.83906555175781 4.262451171875 47.84477996826172 4.351295471191406 49.61996459960938 C 4.693817138671875 56.47370910644531 5.794448852539063 62.86122894287109 7.622634887695313 68.60509490966797 C 9.285545349121094 73.8297119140625 11.58869934082031 78.64244842529297 14.46810150146484 82.90960693359375 C 19.3515625 90.14669799804688 25.98233032226563 95.99105834960938 34.17621612548828 100.2803955078125 C 47.43949890136719 107.2234497070313 60.86458587646484 108.0488739013672 64.66328430175781 108.1364898681641 L 64.68096160888672 108.1369018554688 C 73.5377197265625 108.0352935791016 82.03886413574219 106.0479431152344 89.94716644287109 102.2299118041992 C 96.93741607666016 98.85511016845703 103.3246154785156 94.13838195800781 108.9313507080078 88.21077728271484 C 113.8667831420898 82.99285888671875 118.0450668334961 76.94660949707031 121.0144958496094 70.72569274902344 C 122.3967819213867 67.82984161376953 123.4917984008789 64.95281219482422 124.2691802978516 62.17447662353516 C 125.0283813476563 59.4610595703125 125.4675979614258 56.90494537353516 125.5745468139648 54.57865905761719 C 125.6526489257813 52.81931304931641 125.8151626586914 49.15837860107422 125.6907501220703 46.10649871826172 C 125.5081634521484 41.62766265869141 124.8118591308594 40.93962097167969 124.7379989624023 40.87904357910156 C 124.7351150512695 40.87868499755859 124.7301483154297 40.87828063964844 124.7226486206055 40.87828063964844 L 124.7226486206055 39.87828063964844 M 124.7215347290039 39.87828063964844 C 124.9006805419922 39.87810516357422 125.0649261474609 39.91797637939453 125.2162628173828 39.99999237060547 C 127.1075668334961 41.02500915527344 126.7848129272461 49.86429595947266 126.5735626220703 54.62300872802734 C 125.6934509277344 73.76583099365234 102.9779357910156 108.7086639404297 64.67499542236328 109.1370239257813 C 61.34233093261719 109.0595245361328 6.266731262207031 107.9826965332031 3.352546691894531 49.66987609863281 C 3.181816101074219 46.25902557373047 3.417648315429688 40.02974700927734 5.110198974609375 39.99999237060547 C 5.131561279296875 39.99832153320313 5.153396606445313 39.99747467041016 5.175361633300781 39.99747467041016 C 10.95747375488281 39.99747467041016 37.47103118896484 97.74484252929688 64.67499542236328 97.74484252929688 C 91.28228759765625 97.74484252929688 117.912483215332 39.88494110107422 124.7215347290039 39.87828063964844 Z" stroke="none" fill="#4d330e"/></g></g></g></svg>